# xmcd
#
# Track frame offsets:
#	150
#	19615
#	40212
#	63189
#	81306
#	105519
#	130052
#	148029
#	164070
#	182227
#	201044
#	220425
#	247730
#	265035
#
# Disc length: 3879 seconds
#
# Revision: 0
# Processed by: cddbd v1.5.1PL0 Copyright (c) Steve Scherf et al.
# Submitted via: dBpowerAMP V4.0
#
DISCID=c30f250e
DTITLE=Marty Kopatich - My Sweet Margaret
DYEAR=2003
DGENRE=Country
TTITLE0=My Sweet Margaret
TTITLE1=I'm Sorry Old Friend
TTITLE2=I've Felt It Before
TTITLE3=This Time Things Will Be Different
TTITLE4=Is There Some Reason Why
TTITLE5=A Mother And A Child
TTITLE6=Too Long To Say
TTITLE7=Both Sides Of The Story
TTITLE8=Take Your Turn
TTITLE9=My Castle, My Princess, And My Cadillac
TTITLE10=Did I Tell You
TTITLE11=It Makes You Think
TTITLE12=A Gentle Smile
TTITLE13=Power And Greed
EXTD=Marty Kopatich is a song writer and musican that lives in Denver Colorado
EXTT0=
EXTT1=
EXTT2=
EXTT3=
EXTT4=
EXTT5=
EXTT6=
EXTT7=
EXTT8=
EXTT9=
EXTT10=
EXTT11=
EXTT12=
EXTT13=
PLAYORDER=
